<svg xmlns="http://www.w3.org/2000/svg" viewBox="0 0 28 28">
  <path d="M14 2 C7.4 2 2 7.4 2 14 C2 19.4 5.6 24 10.6 25.4 C11.2 25.6 11.4 25.2 11.4 24.8 C11.4 24.4 11.4 23.6 11.4 22.4 C8 23.2 7.2 21 7.2 21 C6.6 19.6 5.8 19.2 5.8 19.2 C4.6 18.4 5.8 18.4 5.8 18.4 C7.2 18.4 7.8 19.8 7.8 19.8 C9 21.8 11 21 11.6 20.6 C11.8 19.8 12.2 19.2 12.6 18.8 C9.8 18.4 6.8 17.2 6.8 12.8 C6.8 11.6 7.2 10.6 8 9.8 C7.8 9.4 7.2 8.2 8.2 6.6 C8.2 6.6 9.2 6.2 11.4 7.8 C12.4 7.6 13.4 7.4 14.4 7.4 C15.4 7.4 16.4 7.6 17.4 7.8 C19.6 6.2 20.6 6.6 20.6 6.6 C21.6 8.2 21 9.4 20.8 9.8 C21.6 10.6 22 11.6 22 12.8 C22 17.2 19 18.4 16.2 18.8 C16.6 19.2 17 20 17 21 C17 22.8 17 24.2 17 24.8 C17 25.2 17.2 25.6 17.8 25.4 C22.8 24 26.4 19.4 26.4 14 C26 7.4 20.6 2 14 2Z" fill="white"/>
</svg>
