<svg xmlns="http://www.w3.org/2000/svg" viewBox="0 0 144 144">
  <rect width="144" height="144" rx="20" fill="#24292e"/>
  <path d="M72 12 C36.6 12 8 40.6 8 76 C8 104.2 26.8 128 52.8 136.6 C56.2 137.2 57.4 135.2 57.4 133.4 C57.4 131.8 57.4 127.6 57.4 122 C39.6 126 35.6 114 35.6 114 C32.6 106.6 28.2 104.4 28.2 104.4 C22.2 100.4 28.6 100.4 28.6 100.4 C35.2 100.8 38.8 107.2 38.8 107.2 C44.6 117.2 54 113.6 57.6 111.8 C58.2 107.6 59.8 104.8 61.6 103.2 C48 101.6 33.6 96 33.6 71.6 C33.6 64.6 36 58.8 39.8 54.4 C39 52.6 36.8 46 40.4 37 C40.4 37 46 35.2 57.4 43.6 C62.6 42.2 68.2 41.4 73.8 41.4 C79.4 41.4 85 42.2 90.2 43.6 C101.6 35.2 107.2 37 107.2 37 C110.8 46 108.6 52.6 107.8 54.4 C111.6 59 114 64.6 114 71.6 C114 96.2 99.6 101.6 86 103.2 C88.2 105.2 90.2 109.2 90.2 115.2 C90.2 124 90.2 131 90.2 133.2 C90.2 135 91.4 137.2 95 136.4 C120.8 127.8 139.6 104 139.6 75.8 C136 40.6 107.4 12 72 12Z" fill="white"/>
</svg>
